<svg id="visual" viewBox="0 0 960 540" width="960" height="540" xmlns="http://www.w3.org/2000/svg" xmlns:xlink="http://www.w3.org/1999/xlink" version="1.1"><rect x="0" y="0" width="960" height="540" fill="#fcfcfc"></rect><defs><linearGradient id="grad1_0" x1="43.8%" y1="0%" x2="100%" y2="100%"><stop offset="14.444444444444446%" stop-color="#fcfcfc" stop-opacity="1"></stop><stop offset="85.55555555555554%" stop-color="#fcfcfc" stop-opacity="1"></stop></linearGradient></defs><defs><linearGradient id="grad2_0" x1="0%" y1="0%" x2="56.3%" y2="100%"><stop offset="14.444444444444446%" stop-color="#fcfcfc" stop-opacity="1"></stop><stop offset="85.55555555555554%" stop-color="#fcfcfc" stop-opacity="1"></stop></linearGradient></defs><g transform="translate(960, 0)"><path d="M0 270C-16.2 264.2 -32.5 258.5 -51.1 257C-69.7 255.4 -90.8 258.2 -101 243.9C-111.3 229.6 -110.7 198.4 -127.2 190.4C-143.7 182.4 -177.2 197.8 -190.9 190.9C-204.6 184 -198.6 154.9 -204.5 136.7C-210.5 118.4 -228.6 111 -236.5 98C-244.5 84.9 -242.3 66.2 -246.2 49C-250.1 31.7 -260 15.8 -270 0L0 0Z" fill="#96E9C6"></path></g><g transform="translate(0, 540)"><path d="M0 -270C16.1 -256.1 32.2 -242.2 45.8 -230.5C59.5 -218.8 70.5 -209.2 84.6 -204.2C98.6 -199.1 115.6 -198.5 128.3 -192.1C141.1 -185.6 149.7 -173.2 166.9 -166.9C184.1 -160.5 210 -160.1 224.5 -150C239 -139.9 242.2 -120 246.7 -102.2C251.1 -84.4 256.8 -68.6 260.9 -51.9C265 -35.2 267.5 -17.6 270 0L0 0Z" fill="#96E9C6"></path></g></svg>