<svg id="visual" viewBox="0 0 960 540" width="960" height="540" xmlns="http://www.w3.org/2000/svg" xmlns:xlink="http://www.w3.org/1999/xlink" version="1.1"><rect x="0" y="0" width="960" height="540" fill="#333"></rect><path d="M0 294L137 294L137 301L274 301L274 311L411 311L411 293L549 293L549 292L686 292L686 279L823 279L823 310L960 310L960 315L960 541L960 541L823 541L823 541L686 541L686 541L549 541L549 541L411 541L411 541L274 541L274 541L137 541L137 541L0 541Z" fill="#6962ad"></path><path d="M0 415L137 415L137 374L274 374L274 321L411 321L411 336L549 336L549 393L686 393L686 360L823 360L823 363L960 363L960 347L960 541L960 541L823 541L823 541L686 541L686 541L549 541L549 541L411 541L411 541L274 541L274 541L137 541L137 541L0 541Z" fill="#6748ad"></path><path d="M0 402L137 402L137 443L274 443L274 428L411 428L411 477L549 477L549 439L686 439L686 474L823 474L823 403L960 403L960 406L960 541L960 541L823 541L823 541L686 541L686 541L549 541L549 541L411 541L411 541L274 541L274 541L137 541L137 541L0 541Z" fill="#6c22a6"></path></svg>