<svg id="visual" viewBox="0 0 900 600" width="900" height="600" xmlns="http://www.w3.org/2000/svg" xmlns:xlink="http://www.w3.org/1999/xlink" version="1.1"><path d="M0 217L21.5 211C43 205 86 193 128.8 188C171.7 183 214.3 185 257.2 183C300 181 343 175 385.8 169C428.7 163 471.3 157 514.2 161C557 165 600 179 642.8 184C685.7 189 728.3 185 771.2 180C814 175 857 169 878.5 166L900 163L900 0L878.5 0C857 0 814 0 771.2 0C728.3 0 685.7 0 642.8 0C600 0 557 0 514.2 0C471.3 0 428.7 0 385.8 0C343 0 300 0 257.2 0C214.3 0 171.7 0 128.8 0C86 0 43 0 21.5 0L0 0Z" fill="#9258bf"></path><path d="M0 379L21.5 383C43 387 86 395 128.8 391C171.7 387 214.3 371 257.2 368C300 365 343 375 385.8 375C428.7 375 471.3 365 514.2 363C557 361 600 367 642.8 369C685.7 371 728.3 369 771.2 370C814 371 857 375 878.5 377L900 379L900 161L878.5 164C857 167 814 173 771.2 178C728.3 183 685.7 187 642.8 182C600 177 557 163 514.2 159C471.3 155 428.7 161 385.8 167C343 173 300 179 257.2 181C214.3 183 171.7 181 128.8 186C86 191 43 203 21.5 209L0 215Z" fill="#7936ae"></path><path d="M0 481L21.5 485C43 489 86 497 128.8 494C171.7 491 214.3 477 257.2 475C300 473 343 483 385.8 483C428.7 483 471.3 473 514.2 468C557 463 600 463 642.8 463C685.7 463 728.3 463 771.2 464C814 465 857 467 878.5 468L900 469L900 377L878.5 375C857 373 814 369 771.2 368C728.3 367 685.7 369 642.8 367C600 365 557 359 514.2 361C471.3 363 428.7 373 385.8 373C343 373 300 363 257.2 366C214.3 369 171.7 385 128.8 389C86 393 43 385 21.5 381L0 377Z" fill="#622097"></path><path d="M0 601L21.5 601C43 601 86 601 128.8 601C171.7 601 214.3 601 257.2 601C300 601 343 601 385.8 601C428.7 601 471.3 601 514.2 601C557 601 600 601 642.8 601C685.7 601 728.3 601 771.2 601C814 601 857 601 878.5 601L900 601L900 467L878.5 466C857 465 814 463 771.2 462C728.3 461 685.7 461 642.8 461C600 461 557 461 514.2 466C471.3 471 428.7 481 385.8 481C343 481 300 471 257.2 473C214.3 475 171.7 489 128.8 492C86 495 43 487 21.5 483L0 479Z" fill="#4e1b7a"></path></svg>